<svg xmlns="http://www.w3.org/2000/svg" viewBox="0 0 775 76">
  <path id="phork" fill="currentColor" d="M-0.06 72.86L-0.06 4.41C-0.06 3.69 0.15 3.15 0.55 2.78C0.96 2.4 1.46 2.21 2.03 2.21L33.48 2.21C35.72 2.21 37.83 2.54 39.81 3.18C41.81 3.8 43.65 4.65 45.32 5.74C47.02 6.83 48.53 8.14 49.86 9.67C51.19 11.16 52.31 12.8 53.23 14.57C54.18 16.34 54.9 18.21 55.37 20.18C55.88 22.12 56.14 24.08 56.14 26.05C56.14 29.01 55.59 31.9 54.51 34.73C53.45 37.52 51.94 40.02 49.96 42.23C48.02 44.44 45.67 46.23 42.92 47.59C40.2 48.92 37.17 49.58 33.83 49.58L18.83 49.58L18.83 72.86C18.83 74.29 18.08 75 16.58 75L2.03 75C0.64 75 -0.06 74.29 -0.06 72.86ZM29.39 17.78L18.83 17.78L18.83 34.12L29.39 34.12C30.58 34.12 31.64 33.89 32.56 33.45C33.51 32.98 34.29 32.36 34.91 31.61C35.55 30.83 36.05 29.95 36.39 28.96C36.73 27.97 36.9 26.97 36.9 25.95C36.9 24.96 36.73 23.99 36.39 23.04C36.05 22.05 35.55 21.17 34.91 20.39C34.26 19.6 33.46 18.97 32.51 18.5C31.59 18.02 30.55 17.78 29.39 17.78ZM110.24 72.86L110.24 44.99L85.64 44.99L85.64 72.86C85.64 74.29 84.86 75 83.29 75L68.9 75C67.47 75 66.76 74.29 66.76 72.86L66.76 4.41C66.76 3.83 66.93 3.32 67.27 2.88C67.64 2.44 68.18 2.21 68.9 2.21L83.6 2.21C84.01 2.21 84.45 2.35 84.93 2.62C85.4 2.86 85.64 3.42 85.64 4.31L85.64 27.68L110.24 27.68L110.24 4.41C110.24 3.83 110.41 3.32 110.75 2.88C111.13 2.44 111.67 2.21 112.39 2.21L127.09 2.21C127.49 2.21 127.94 2.35 128.41 2.62C128.89 2.86 129.13 3.42 129.13 4.31L129.13 72.86C129.13 74.29 128.35 75 126.78 75L112.39 75C110.96 75 110.24 74.29 110.24 72.86ZM141.74 38.61C141.74 35.17 142.18 31.85 143.06 28.65C143.95 25.46 145.21 22.48 146.84 19.72C148.47 16.93 150.43 14.4 152.71 12.12C154.99 9.84 157.51 7.88 160.26 6.25C163.05 4.61 166.05 3.35 169.25 2.47C172.45 1.59 175.76 1.14 179.2 1.14C182.64 1.14 185.95 1.59 189.15 2.47C192.35 3.35 195.33 4.61 198.09 6.25C200.88 7.88 203.41 9.84 205.69 12.12C207.97 14.4 209.93 16.93 211.56 19.72C213.19 22.48 214.45 25.46 215.34 28.65C216.22 31.85 216.66 35.17 216.66 38.61C216.66 42.04 216.22 45.36 215.34 48.56C214.45 51.76 213.19 54.74 211.56 57.49C209.93 60.25 207.97 62.77 205.69 65.05C203.41 67.33 200.88 69.28 198.09 70.92C195.33 72.55 192.35 73.81 189.15 74.69C185.95 75.58 182.64 76.02 179.2 76.02C174.03 76.02 169.16 75.05 164.6 73.11C160.08 71.14 156.11 68.47 152.71 65.1C149.31 61.7 146.62 57.73 144.64 53.21C142.71 48.65 141.74 43.78 141.74 38.61ZM160.57 38.61C160.57 41.3 161.03 43.83 161.95 46.21C162.9 48.56 164.19 50.62 165.83 52.39C167.49 54.12 169.47 55.5 171.75 56.52C174.03 57.54 176.51 58.05 179.2 58.05C181.89 58.05 184.37 57.54 186.65 56.52C188.93 55.5 190.91 54.12 192.57 52.39C194.24 50.62 195.53 48.56 196.45 46.21C197.37 43.83 197.83 41.3 197.83 38.61C197.83 35.92 197.37 33.4 196.45 31.05C195.53 28.67 194.24 26.6 192.57 24.83C190.91 23.06 188.93 21.68 186.65 20.69C184.37 19.67 181.89 19.16 179.2 19.16C176.51 19.16 174.03 19.67 171.75 20.69C169.47 21.68 167.49 23.06 165.83 24.83C164.19 26.6 162.9 28.67 161.95 31.05C161.03 33.4 160.57 35.92 160.57 38.61ZM228.71 72.86L228.71 4.41C228.71 3.86 228.88 3.37 229.22 2.93C229.56 2.45 230.09 2.21 230.8 2.21L263.32 2.21C266.79 2.21 269.94 2.91 272.76 4.31C275.62 5.7 278.07 7.54 280.11 9.82C282.15 12.1 283.73 14.72 284.86 17.68C285.98 20.61 286.54 23.6 286.54 26.66C286.54 28.6 286.25 30.54 285.67 32.48C285.09 34.39 284.28 36.21 283.22 37.94C282.17 39.68 280.91 41.3 279.45 42.79C277.98 44.29 276.37 45.6 274.6 46.72L288.63 72.86C288.91 73.33 288.94 73.81 288.74 74.29C288.53 74.76 288.09 75 287.41 75L269.75 75C269.07 75 268.56 74.86 268.22 74.59C267.88 74.29 267.5 73.74 267.09 72.96L255.51 50.81L247.6 50.81L247.6 72.86C247.6 74.29 246.88 75 245.45 75L230.8 75C229.41 75 228.71 74.29 228.71 72.86ZM258.47 17.37L247.6 17.37L247.6 35.14L258.47 35.14C259.76 35.14 260.93 34.88 261.99 34.37C263.08 33.86 264 33.2 264.75 32.38C265.53 31.56 266.12 30.63 266.53 29.57C266.97 28.52 267.2 27.43 267.2 26.31C267.2 25.25 266.97 24.2 266.53 23.14C266.12 22.05 265.53 21.08 264.75 20.23C263.96 19.38 263.03 18.7 261.94 18.19C260.88 17.65 259.73 17.37 258.47 17.37ZM359.22 4.51L335.54 33.25L361.83 72.7C362.3 73.38 362.47 73.95 362.34 74.39C362.24 74.8 361.84 75 361.16 75L342.58 75C341.87 75 341.29 74.81 340.85 74.44C340.41 74.06 339.98 73.54 339.57 72.86L323.49 47.9L316.3 56.63L316.3 72.86C316.3 74.29 315.58 75 314.15 75L299.51 75C298.11 75 297.41 74.29 297.41 72.86L297.41 4.41C297.41 3.73 297.6 3.2 297.97 2.83C298.35 2.42 298.86 2.21 299.51 2.21L313.95 2.21C314.12 2.21 314.34 2.27 314.61 2.37C314.89 2.47 315.14 2.61 315.38 2.78C315.65 2.95 315.87 3.18 316.04 3.49C316.21 3.76 316.3 4.07 316.3 4.41L316.3 31.26L337.38 3.85C337.99 3.07 338.55 2.61 339.06 2.47C339.57 2.3 340.22 2.21 341 2.21L358.66 2.21C359.45 2.21 359.84 2.49 359.84 3.03C359.84 3.54 359.63 4.04 359.22 4.51Z" />
  <path id="works" fill="currentColor" d="M444.92 72.86L437.52 53.97L430.63 72.86C430.12 74.29 429.13 75 427.67 75L415.47 75C414.04 75 413.06 74.29 412.51 72.86L386.33 4.41C386.09 3.8 386.07 3.29 386.28 2.88C386.51 2.44 386.99 2.21 387.71 2.21L403.53 2.21C404.96 2.21 405.93 2.95 406.44 4.41L421.39 48.56L435.02 4.41C435.26 3.66 435.63 3.12 436.14 2.78C436.65 2.4 437.27 2.21 437.98 2.21L454.21 2.21C454.89 2.21 455.34 2.45 455.54 2.93C455.78 3.37 455.79 3.86 455.59 4.41L446.76 28.55L453.75 48.76L469.47 4.41C469.98 2.95 470.97 2.21 472.43 2.21L488.46 2.21C489.18 2.21 489.64 2.44 489.84 2.88C490.08 3.32 490.08 3.83 489.84 4.41L462.43 72.86C461.85 74.29 460.85 75 459.42 75L447.93 75C446.47 75 445.47 74.29 444.92 72.86ZM491.01 38.61C491.01 35.17 491.46 31.85 492.34 28.65C493.23 25.46 494.48 22.48 496.12 19.72C497.75 16.93 499.71 14.4 501.99 12.12C504.27 9.84 506.79 7.88 509.54 6.25C512.33 4.61 515.33 3.35 518.52 2.47C521.72 1.59 525.04 1.14 528.48 1.14C531.91 1.14 535.23 1.59 538.43 2.47C541.63 3.35 544.61 4.61 547.36 6.25C550.15 7.88 552.69 9.84 554.97 12.12C557.25 14.4 559.21 16.93 560.84 19.72C562.47 22.48 563.73 25.46 564.62 28.65C565.5 31.85 565.94 35.17 565.94 38.61C565.94 42.04 565.5 45.36 564.62 48.56C563.73 51.76 562.47 54.74 560.84 57.49C559.21 60.25 557.25 62.77 554.97 65.05C552.69 67.33 550.15 69.28 547.36 70.92C544.61 72.55 541.63 73.81 538.43 74.69C535.23 75.58 531.91 76.02 528.48 76.02C523.31 76.02 518.44 75.05 513.88 73.11C509.35 71.14 505.39 68.47 501.99 65.1C498.58 61.7 495.9 57.73 493.92 53.21C491.98 48.65 491.01 43.78 491.01 38.61ZM509.85 38.61C509.85 41.3 510.31 43.83 511.23 46.21C512.18 48.56 513.47 50.62 515.11 52.39C516.77 54.12 518.75 55.5 521.03 56.52C523.31 57.54 525.79 58.05 528.48 58.05C531.17 58.05 533.65 57.54 535.93 56.52C538.21 55.5 540.18 54.12 541.85 52.39C543.52 50.62 544.81 48.56 545.73 46.21C546.65 43.83 547.11 41.3 547.11 38.61C547.11 35.92 546.65 33.4 545.73 31.05C544.81 28.67 543.52 26.6 541.85 24.83C540.18 23.06 538.21 21.68 535.93 20.69C533.65 19.67 531.17 19.16 528.48 19.16C525.79 19.16 523.31 19.67 521.03 20.69C518.75 21.68 516.77 23.06 515.11 24.83C513.47 26.6 512.18 28.67 511.23 31.05C510.31 33.4 509.85 35.92 509.85 38.61ZM577.99 72.86L577.99 4.41C577.99 3.86 578.16 3.37 578.5 2.93C578.84 2.45 579.37 2.21 580.08 2.21L612.59 2.21C616.07 2.21 619.21 2.91 622.04 4.31C624.9 5.7 627.35 7.54 629.39 9.82C631.43 12.1 633.01 14.72 634.13 17.68C635.26 20.61 635.82 23.6 635.82 26.66C635.82 28.6 635.53 30.54 634.95 32.48C634.37 34.39 633.56 36.21 632.5 37.94C631.45 39.68 630.19 41.3 628.72 42.79C627.26 44.29 625.64 45.6 623.88 46.72L637.91 72.86C638.18 73.33 638.22 73.81 638.01 74.29C637.81 74.76 637.37 75 636.69 75L619.03 75C618.35 75 617.84 74.86 617.49 74.59C617.15 74.29 616.78 73.74 616.37 72.96L604.79 50.81L596.87 50.81L596.87 72.86C596.87 74.29 596.16 75 594.73 75L580.08 75C578.69 75 577.99 74.29 577.99 72.86ZM607.75 17.37L596.87 17.37L596.87 35.14L607.75 35.14C609.04 35.14 610.21 34.88 611.27 34.37C612.36 33.86 613.28 33.2 614.02 32.38C614.81 31.56 615.4 30.63 615.81 29.57C616.25 28.52 616.47 27.43 616.47 26.31C616.47 25.25 616.25 24.2 615.81 23.14C615.4 22.05 614.81 21.08 614.02 20.23C613.24 19.38 612.31 18.7 611.22 18.19C610.16 17.65 609 17.37 607.75 17.37ZM708.5 4.51L684.82 33.25L711.11 72.7C711.58 73.38 711.75 73.95 711.62 74.39C711.51 74.8 711.12 75 710.44 75L691.86 75C691.15 75 690.57 74.81 690.13 74.44C689.68 74.06 689.26 73.54 688.85 72.86L672.77 47.9L665.58 56.63L665.58 72.86C665.58 74.29 664.86 75 663.43 75L648.78 75C647.39 75 646.69 74.29 646.69 72.86L646.69 4.41C646.69 3.73 646.88 3.2 647.25 2.83C647.63 2.42 648.14 2.21 648.78 2.21L663.23 2.21C663.4 2.21 663.62 2.27 663.89 2.37C664.16 2.47 664.42 2.61 664.66 2.78C664.93 2.95 665.15 3.18 665.32 3.49C665.49 3.76 665.58 4.07 665.58 4.41L665.58 31.26L686.66 3.85C687.27 3.07 687.83 2.61 688.34 2.47C688.85 2.3 689.5 2.21 690.28 2.21L707.94 2.21C708.72 2.21 709.11 2.49 709.11 3.03C709.11 3.54 708.91 4.04 708.5 4.51ZM719.68 63.52C719.37 63.18 719.08 62.84 718.81 62.49C718.57 62.15 718.4 61.81 718.3 61.47C718.2 61.1 718.2 60.73 718.3 60.35C718.44 59.98 718.71 59.59 719.12 59.18L727.59 51.11C728.24 50.47 728.87 50.24 729.48 50.45C730.09 50.62 730.72 50.98 731.37 51.52C732.29 52.3 733.31 53.14 734.43 54.02C735.59 54.91 736.81 55.74 738.11 56.52C739.4 57.27 740.76 57.9 742.19 58.41C743.62 58.92 745.08 59.18 746.58 59.18C748.25 59.18 749.61 58.99 750.66 58.62C751.72 58.24 752.55 57.75 753.16 57.14C753.78 56.52 754.18 55.81 754.39 54.99C754.63 54.14 754.75 53.26 754.75 52.34C754.75 51.32 754.39 50.41 753.67 49.63C752.96 48.82 752.07 48.12 751.02 47.54C749.96 46.93 748.86 46.4 747.7 45.96C746.55 45.51 745.52 45.14 744.64 44.83C740.69 43.47 737.22 41.99 734.23 40.39C731.23 38.79 728.73 37.02 726.72 35.09C724.72 33.15 723.19 31 722.13 28.65C721.11 26.31 720.6 23.7 720.6 20.84C720.6 17.82 721.25 15.06 722.54 12.58C723.83 10.09 725.64 7.98 727.95 6.25C730.3 4.48 733.09 3.12 736.32 2.16C739.59 1.18 743.19 0.68 747.14 0.68C749.32 0.68 751.55 0.92 753.83 1.4C756.11 1.87 758.28 2.54 760.36 3.39C762.47 4.21 764.43 5.21 766.23 6.4C768.03 7.56 769.58 8.83 770.88 10.23C771.56 11.01 771.9 11.76 771.9 12.47C771.9 13.19 771.5 13.94 770.72 14.72L763.22 22.73C762.54 23.41 761.84 23.65 761.13 23.45C760.45 23.21 759.76 22.78 759.08 22.17C758.23 21.39 757.18 20.57 755.92 19.72C754.69 18.84 753.37 18.14 751.94 17.63C751.05 17.32 749.91 17.1 748.52 16.97C747.12 16.83 745.75 16.9 744.38 17.17C743.06 17.41 741.9 17.9 740.91 18.65C739.96 19.36 739.48 20.42 739.48 21.81C739.48 22.73 739.74 23.53 740.25 24.21C740.76 24.86 741.51 25.47 742.5 26.05C743.48 26.6 744.67 27.14 746.07 27.68C747.46 28.19 749.06 28.74 750.87 29.32C754.34 30.47 757.5 31.68 760.36 32.94C763.25 34.2 765.72 35.7 767.76 37.43C769.84 39.13 771.44 41.18 772.56 43.56C773.72 45.94 774.29 48.83 774.29 52.24C774.29 55.81 773.58 59.06 772.15 61.98C770.76 64.91 768.8 67.41 766.28 69.49C763.8 71.53 760.85 73.11 757.45 74.23C754.05 75.36 750.34 75.92 746.32 75.92C743.81 75.92 741.3 75.6 738.82 74.95C736.34 74.27 733.94 73.37 731.62 72.24C729.34 71.12 727.18 69.81 725.14 68.31C723.13 66.82 721.31 65.22 719.68 63.52Z" />
</svg>
