<?xml version="1.0" standalone="no"?>
<!DOCTYPE svg PUBLIC "-//W3C//DTD SVG 20010904//EN"
 "http://www.w3.org/TR/2001/REC-SVG-20010904/DTD/svg10.dtd">
<svg version="1.0" xmlns="http://www.w3.org/2000/svg"
 width="800.000000pt" height="800.000000pt" viewBox="0 0 800.000000 800.000000"
 preserveAspectRatio="xMidYMid meet">
<metadata>
Created by potrace 1.14, written by Peter Selinger 2001-2017
</metadata>
<g transform="translate(0.000000,800.000000) scale(0.100000,-0.100000)"
fill="#000000" stroke="none">
<path d="M5597 7963 c-77 -19 -94 -29 -382 -232 -27 -19 -80 -55 -116 -81 -37
-25 -140 -97 -230 -160 -90 -63 -172 -119 -181 -125 -43 -26 -213 -149 -216
-157 -2 -4 -8 -8 -12 -8 -9 0 -210 -137 -220 -150 -3 -4 -12 -9 -20 -13 -8 -4
-46 -29 -85 -57 -38 -28 -105 -74 -147 -102 -43 -29 -78 -56 -78 -60 0 -4 -4
-8 -10 -8 -8 0 -144 -91 -175 -117 -5 -5 -47 -33 -92 -63 -46 -30 -83 -58 -83
-62 0 -5 -6 -8 -12 -8 -7 0 -24 -10 -38 -21 -14 -11 -144 -103 -290 -204 -146
-101 -274 -191 -285 -200 -11 -9 -30 -22 -42 -28 -13 -5 -23 -14 -23 -19 0 -4
-5 -8 -11 -8 -6 0 -16 -6 -24 -12 -7 -7 -75 -56 -151 -108 -77 -52 -145 -100
-152 -107 -6 -6 -21 -15 -32 -18 -11 -3 -20 -10 -20 -14 0 -3 -15 -15 -33 -26
-17 -10 -71 -47 -118 -82 -48 -35 -91 -63 -97 -63 -6 0 -12 -3 -14 -8 -1 -4
-52 -41 -111 -82 -60 -41 -114 -79 -121 -85 -6 -5 -38 -28 -71 -50 -33 -22
-64 -44 -70 -48 -18 -14 -357 -252 -374 -262 -9 -5 -18 -12 -21 -15 -5 -6 -97
-80 -115 -92 -47 -34 -195 -159 -237 -200 -15 -16 -30 -28 -34 -28 -7 0 -302
-297 -356 -359 -21 -23 -38 -47 -38 -52 0 -5 -3 -9 -8 -9 -7 0 -156 -185 -177
-221 -5 -9 -35 -54 -66 -100 -80 -120 -219 -382 -219 -412 0 -7 -4 -17 -9 -22
-11 -12 -98 -271 -106 -317 -3 -18 -11 -53 -16 -78 -6 -25 -12 -58 -15 -75 -2
-16 -6 -43 -8 -60 -8 -52 -18 -188 -17 -232 1 -24 1 -51 1 -60 0 -10 0 -36 0
-57 0 -22 2 -41 4 -44 3 -2 1 -14 -4 -26 -4 -12 -4 -29 1 -38 6 -10 6 -19 0
-23 -7 -3 -7 -15 -1 -30 6 -15 6 -27 -1 -30 -5 -4 -7 -10 -4 -15 8 -12 9 -240
1 -247 -3 -3 -1 -12 5 -20 8 -9 8 -17 1 -26 -7 -8 -7 -18 -2 -27 5 -8 5 -21 0
-31 -5 -9 -7 -19 -4 -21 3 -3 6 -333 8 -734 2 -401 6 -740 10 -754 3 -14 8
-38 11 -55 10 -64 17 -91 45 -164 16 -42 41 -93 55 -113 14 -20 25 -40 25 -43
0 -16 102 -111 161 -151 66 -43 200 -94 289 -109 61 -10 2392 -16 2405 -6 5 5
17 8 25 8 18 0 90 10 122 17 12 3 34 8 48 10 92 15 304 82 425 134 100 43 129
54 134 52 2 -1 7 2 10 7 3 6 34 24 68 41 34 17 92 49 129 72 36 22 70 40 75
40 5 0 9 4 9 8 0 5 10 13 23 19 30 15 212 145 253 183 18 16 36 30 39 30 3 0
13 8 24 17 10 10 58 55 107 100 143 131 180 168 324 329 73 82 90 103 188 234
52 69 102 136 113 150 10 13 19 30 19 37 0 7 5 13 10 13 6 0 13 8 17 18 3 9
14 26 23 37 15 18 130 182 155 223 15 24 22 34 50 68 14 18 25 37 25 43 0 6 5
11 10 11 6 0 10 5 10 10 0 11 10 24 43 61 9 10 17 21 17 24 -1 3 19 33 43 68
24 34 83 118 130 187 48 69 90 130 94 135 5 6 22 30 38 55 17 25 35 51 42 57
6 7 21 29 34 50 13 21 25 40 29 43 3 3 23 32 45 65 22 33 43 62 46 65 3 3 50
70 104 150 54 80 101 147 105 150 3 3 17 23 30 45 13 22 26 42 29 45 4 3 26
34 50 70 25 36 47 67 50 70 4 3 44 61 90 130 46 69 88 127 93 128 4 2 8 8 8
13 0 8 65 105 80 119 3 3 23 32 45 65 22 33 43 62 48 63 4 2 7 8 7 12 0 5 46
74 103 154 56 80 143 204 192 276 50 72 129 187 178 256 48 69 87 129 87 134
0 4 4 10 8 12 5 2 23 26 42 53 18 28 36 52 39 55 3 3 24 32 46 65 22 33 54 80
72 105 18 25 36 50 40 56 5 5 13 18 18 27 6 9 64 93 130 187 66 95 127 182
135 195 8 13 34 50 56 82 76 109 89 142 86 237 -3 159 -147 275 -292 236 -44
-12 -97 -46 -135 -87 -34 -36 -87 -96 -155 -173 -36 -41 -75 -85 -87 -98 -13
-12 -23 -25 -23 -27 0 -3 -15 -20 -32 -39 -18 -18 -75 -82 -127 -142 -52 -60
-104 -118 -115 -130 -12 -12 -43 -47 -71 -79 -27 -32 -57 -65 -65 -75 -8 -9
-40 -45 -70 -80 -30 -35 -66 -75 -78 -89 -31 -33 -125 -140 -149 -167 -78 -90
-132 -152 -158 -179 -16 -18 -52 -59 -80 -91 -27 -32 -63 -73 -80 -92 -38 -42
-55 -61 -135 -152 -113 -128 -162 -184 -199 -226 -20 -22 -63 -71 -96 -109
-126 -144 -159 -181 -174 -196 -9 -9 -23 -25 -31 -35 -27 -33 -154 -178 -175
-200 -11 -12 -42 -47 -70 -79 -27 -31 -59 -67 -70 -79 -19 -21 -105 -119 -142
-162 -10 -12 -44 -50 -75 -85 -31 -35 -65 -73 -75 -85 -38 -44 -139 -158 -153
-174 -8 -8 -78 -87 -155 -175 -167 -192 -208 -232 -260 -256 -142 -66 -289 51
-272 216 9 88 40 136 206 324 31 35 61 69 66 75 6 6 42 47 80 91 38 44 74 85
80 91 5 6 33 37 60 69 28 32 55 63 60 69 6 6 44 49 85 96 41 47 86 99 101 115
15 17 37 41 49 55 106 124 279 321 289 330 3 3 33 37 66 75 33 39 70 81 82 95
12 14 32 36 43 50 12 14 36 41 53 60 18 19 61 69 96 110 35 41 75 86 89 100
13 14 38 42 56 64 17 21 40 48 52 60 20 20 196 221 245 280 13 16 29 34 35 40
10 11 62 69 163 186 31 35 63 71 71 80 8 9 40 45 70 81 30 35 60 69 66 74 6 6
37 42 70 80 32 39 64 75 70 80 5 6 39 44 75 85 54 64 95 110 144 164 6 6 46
53 90 104 43 50 83 92 87 92 4 0 8 4 8 9 0 6 19 31 43 57 57 64 75 85 122 139
22 26 57 65 77 88 58 66 82 122 82 197 1 197 -210 318 -377 217 -33 -20 -209
-189 -752 -722 -90 -88 -298 -291 -462 -452 -164 -160 -391 -383 -505 -495
-114 -112 -332 -325 -485 -475 -267 -261 -449 -440 -893 -877 -201 -198 -266
-256 -292 -260 -7 -1 -19 -5 -26 -9 -14 -9 -96 -11 -127 -3 -11 2 -23 5 -27 5
-3 1 -21 13 -38 28 -38 31 -70 100 -70 148 0 48 35 134 71 175 30 34 486 502
849 870 96 98 311 317 477 487 166 169 381 389 479 488 97 99 278 284 403 411
124 127 396 404 603 615 207 211 387 397 399 413 46 58 63 146 45 225 -9 38
-68 107 -111 130 -80 42 -156 46 -238 13 -16 -7 -30 -12 -33 -12 -5 0 -64 -40
-74 -50 -3 -3 -39 -34 -80 -70 -41 -35 -82 -71 -91 -80 -8 -8 -39 -35 -68 -60
-29 -25 -66 -56 -81 -70 -15 -14 -51 -45 -80 -70 -29 -25 -65 -56 -80 -70 -15
-14 -49 -44 -77 -67 -27 -24 -61 -53 -75 -65 -13 -13 -51 -45 -83 -73 -32 -27
-65 -57 -74 -65 -9 -9 -47 -43 -86 -75 -38 -33 -74 -65 -80 -71 -5 -5 -44 -39
-85 -75 -41 -35 -77 -66 -80 -69 -3 -3 -39 -34 -80 -70 -41 -36 -77 -67 -80
-70 -3 -3 -39 -34 -80 -69 -41 -36 -84 -73 -95 -83 -49 -46 -89 -78 -97 -78
-4 0 -8 -7 -8 -15 0 -8 -4 -15 -8 -15 -5 0 -17 -8 -28 -17 -11 -10 -51 -45
-89 -78 -122 -105 -128 -110 -139 -121 -11 -10 -170 -150 -215 -188 -13 -12
-34 -30 -46 -41 -13 -11 -49 -42 -81 -70 -32 -27 -65 -57 -74 -65 -15 -15
-122 -108 -316 -277 -12 -10 -49 -43 -84 -73 -35 -30 -72 -63 -84 -73 -12 -10
-48 -43 -81 -72 -33 -30 -70 -62 -81 -72 -38 -32 -136 -118 -148 -128 -6 -6
-42 -37 -81 -70 -38 -33 -72 -63 -75 -66 -6 -7 -81 -73 -164 -144 -32 -27 -67
-58 -78 -67 -63 -54 -191 -62 -260 -17 -123 81 -118 237 13 359 45 42 201 184
223 203 12 10 55 49 96 87 41 38 84 77 96 87 12 10 60 53 107 97 48 43 97 87
109 98 13 11 59 52 103 93 44 40 102 92 129 116 27 24 64 58 81 74 18 17 63
57 101 90 37 33 92 83 122 110 30 28 64 58 76 68 31 27 151 135 214 192 30 28
64 58 76 68 11 10 52 46 90 80 38 34 78 70 89 80 21 18 130 115 171 152 50 45
168 149 194 171 15 13 30 24 35 24 4 0 7 7 7 15 0 8 5 15 10 15 6 0 18 8 28
18 10 9 51 46 92 82 40 36 99 87 129 115 31 27 65 57 76 67 50 42 66 57 130
113 37 33 78 69 92 80 14 11 40 34 57 50 18 17 57 50 86 75 29 25 58 50 64 56
6 6 63 54 126 108 63 54 126 107 140 119 14 12 63 53 110 92 179 147 209 186
216 279 3 40 -2 62 -23 104 -14 28 -29 52 -32 52 -4 0 -18 11 -32 24 -20 19
-72 43 -111 52 -5 1 -9 2 -10 3 -10 8 -91 4 -131 -6z"/>
</g>
</svg>
