<?xml version="1.0" standalone="no"?>
<!DOCTYPE svg PUBLIC "-//W3C//DTD SVG 20010904//EN"
 "http://www.w3.org/TR/2001/REC-SVG-20010904/DTD/svg10.dtd">
<svg version="1.0" xmlns="http://www.w3.org/2000/svg"
 width="700.000000pt" height="700.000000pt" viewBox="0 0 700.000000 700.000000"
 preserveAspectRatio="xMidYMid meet">
<metadata>
Created by potrace 1.11, written by Peter Selinger 2001-2013
</metadata>
<g transform="translate(0.000000,700.000000) scale(0.100000,-0.100000)"
fill="#000000" stroke="none">
<path d="M3215 6989 c-1421 -132 -2684 -1199 -3090 -2609 -39 -135 -75 -307
-102 -490 -16 -105 -17 -281 -20 -2003 l-4 -1888 1883 4 c2041 4 1953 1 2238
58 702 139 1342 492 1865 1030 674 693 1041 1605 1012 2509 -14 409 -82 763
-219 1129 -443 1188 -1516 2054 -2768 2235 -242 35 -575 45 -795 25z m1578
-891 c108 -114 197 -211 197 -216 0 -5 -544 -453 -1209 -995 -665 -543 -1221
-1001 -1236 -1019 -131 -154 -91 -368 85 -460 65 -33 165 -32 240 3 68 32 3
-29 1299 1209 590 564 1076 1026 1080 1028 3 1 95 -87 205 -197 l198 -198
-1107 -1159 c-1233 -1292 -1169 -1218 -1170 -1358 0 -107 47 -186 145 -244 39
-24 56 -27 130 -27 74 0 92 4 143 29 32 17 75 48 95 70 21 23 475 578 1010
1234 535 655 977 1192 983 1192 8 0 421 -386 427 -400 4 -11 -2041 -2944
-2126 -3050 -352 -435 -759 -710 -1217 -822 -90 -22 -96 -22 -1182 -25 l-1093
-4 0 1064 c0 1002 1 1070 19 1168 35 192 117 405 221 574 158 259 434 550 744
785 160 122 2900 2029 2911 2027 6 -1 100 -95 208 -209z"/>
</g>
</svg>
