<svg version="1.2" xmlns="http://www.w3.org/2000/svg" viewBox="0 0 1092 179" width="1092" height="179">
	<title>phork.works</title>
	<path fill="currentColor" d="M923.23 175.99C891 182.29 856.44 178.64 833.07 157.96L783.02 107.86C771.25 96.07 770.49 82.8 785.38 68.41L833.07 20.6C856.44 -0.77 890.89 -2.53 923.23 2.57L1081.88 30.94C1094.64 33.23 1094.83 49.61 1081.97 48.18C1052.27 44.88 930.26 39.01 930.26 39.01C918.83 38.7 919.14 52.99 929.94 53.3L1081.97 63.43C1094.83 64.86 1094.64 81.05 1081.81 80.54L930.74 82.04C918.67 82.36 918.99 96.34 930.74 96.34C944.08 96.34 1082.62 97.83 1082.78 97.83C1094.86 98.14 1094.94 114.7 1082.47 114.98C1082.47 114.98 932.19 124.89 931.69 124.92C919.3 125.55 918.83 140.32 930.58 139.68C930.58 139.68 1082.36 130.16 1082.55 130.15C1095.17 129.43 1094.93 145.55 1083.17 147.15L923.23 175.99Z" />
	<path fill="currentColor" d="M-0.06 128.86L-0.06 60.41C-0.06 59.69 0.15 59.15 0.55 58.78C0.96 58.4 1.46 58.21 2.03 58.21L33.48 58.21C35.72 58.21 37.83 58.54 39.81 59.18C41.81 59.8 43.65 60.65 45.32 61.74C47.02 62.83 48.53 64.14 49.86 65.67C51.19 67.16 52.31 68.8 53.23 70.57C54.18 72.34 54.9 74.21 55.37 76.18C55.88 78.12 56.14 80.08 56.14 82.05C56.14 85.01 55.59 87.9 54.51 90.73C53.45 93.52 51.94 96.02 49.96 98.23C48.02 100.44 45.67 102.23 42.92 103.59C40.2 104.92 37.17 105.58 33.83 105.58L18.83 105.58L18.83 128.86C18.83 130.29 18.08 131 16.58 131L2.03 131C0.64 131 -0.06 130.29 -0.06 128.86ZM29.39 73.78L18.83 73.78L18.83 90.12L29.39 90.12C30.58 90.12 31.64 89.89 32.56 89.45C33.51 88.98 34.29 88.36 34.91 87.61C35.55 86.83 36.05 85.95 36.39 84.96C36.73 83.97 36.9 82.97 36.9 81.95C36.9 80.96 36.73 79.99 36.39 79.04C36.05 78.05 35.55 77.17 34.91 76.39C34.26 75.6 33.46 74.97 32.51 74.5C31.59 74.02 30.55 73.78 29.39 73.78ZM110.24 128.86L110.24 100.99L85.64 100.99L85.64 128.86C85.64 130.29 84.86 131 83.29 131L68.9 131C67.47 131 66.76 130.29 66.76 128.86L66.76 60.41C66.76 59.83 66.93 59.32 67.27 58.88C67.64 58.44 68.18 58.21 68.9 58.21L83.6 58.21C84.01 58.21 84.45 58.35 84.93 58.62C85.4 58.86 85.64 59.42 85.64 60.31L85.64 83.68L110.24 83.68L110.24 60.41C110.24 59.83 110.41 59.32 110.75 58.88C111.13 58.44 111.67 58.21 112.39 58.21L127.09 58.21C127.49 58.21 127.94 58.35 128.41 58.62C128.89 58.86 129.13 59.42 129.13 60.31L129.13 128.86C129.13 130.29 128.35 131 126.78 131L112.39 131C110.96 131 110.24 130.29 110.24 128.86ZM141.74 94.61C141.74 91.17 142.18 87.85 143.06 84.65C143.95 81.46 145.21 78.48 146.84 75.72C148.47 72.93 150.43 70.4 152.71 68.12C154.99 65.84 157.51 63.88 160.26 62.25C163.05 60.61 166.05 59.35 169.25 58.47C172.45 57.59 175.76 57.14 179.2 57.14C182.64 57.14 185.95 57.59 189.15 58.47C192.35 59.35 195.33 60.61 198.09 62.25C200.88 63.88 203.41 65.84 205.69 68.12C207.97 70.4 209.93 72.93 211.56 75.72C213.19 78.48 214.45 81.46 215.34 84.65C216.22 87.85 216.66 91.17 216.66 94.61C216.66 98.04 216.22 101.36 215.34 104.56C214.45 107.76 213.19 110.74 211.56 113.49C209.93 116.25 207.97 118.77 205.69 121.05C203.41 123.33 200.88 125.28 198.09 126.92C195.33 128.55 192.35 129.81 189.15 130.69C185.95 131.58 182.64 132.02 179.2 132.02C174.03 132.02 169.16 131.05 164.6 129.11C160.08 127.14 156.11 124.47 152.71 121.1C149.31 117.7 146.62 113.73 144.64 109.21C142.71 104.65 141.74 99.78 141.74 94.61ZM160.57 94.61C160.57 97.3 161.03 99.83 161.95 102.21C162.9 104.56 164.19 106.62 165.83 108.39C167.49 110.12 169.47 111.5 171.75 112.52C174.03 113.54 176.51 114.05 179.2 114.05C181.89 114.05 184.37 113.54 186.65 112.52C188.93 111.5 190.91 110.12 192.57 108.39C194.24 106.62 195.53 104.56 196.45 102.21C197.37 99.83 197.83 97.3 197.83 94.61C197.83 91.92 197.37 89.4 196.45 87.05C195.53 84.67 194.24 82.6 192.57 80.83C190.91 79.06 188.93 77.68 186.65 76.69C184.37 75.67 181.89 75.16 179.2 75.16C176.51 75.16 174.03 75.67 171.75 76.69C169.47 77.68 167.49 79.06 165.83 80.83C164.19 82.6 162.9 84.67 161.95 87.05C161.03 89.4 160.57 91.92 160.57 94.61ZM228.71 128.86L228.71 60.41C228.71 59.86 228.88 59.37 229.22 58.93C229.56 58.45 230.09 58.21 230.8 58.21L263.32 58.21C266.79 58.21 269.94 58.91 272.76 60.31C275.62 61.7 278.07 63.54 280.11 65.82C282.15 68.1 283.73 70.72 284.86 73.68C285.98 76.61 286.54 79.6 286.54 82.66C286.54 84.6 286.25 86.54 285.67 88.48C285.09 90.39 284.28 92.21 283.22 93.94C282.17 95.68 280.91 97.3 279.45 98.79C277.98 100.29 276.37 101.6 274.6 102.72L288.63 128.86C288.91 129.33 288.94 129.81 288.74 130.29C288.53 130.76 288.09 131 287.41 131L269.75 131C269.07 131 268.56 130.86 268.22 130.59C267.88 130.29 267.5 129.74 267.09 128.96L255.51 106.81L247.6 106.81L247.6 128.86C247.6 130.29 246.88 131 245.45 131L230.8 131C229.41 131 228.71 130.29 228.71 128.86ZM258.47 73.37L247.6 73.37L247.6 91.14L258.47 91.14C259.76 91.14 260.93 90.88 261.99 90.37C263.08 89.86 264 89.2 264.75 88.38C265.53 87.56 266.12 86.63 266.53 85.57C266.97 84.52 267.2 83.43 267.2 82.31C267.2 81.25 266.97 80.2 266.53 79.14C266.12 78.05 265.53 77.08 264.75 76.23C263.96 75.38 263.03 74.7 261.94 74.19C260.88 73.65 259.73 73.37 258.47 73.37ZM359.22 60.51L335.54 89.25L361.83 128.7C362.3 129.38 362.47 129.95 362.34 130.39C362.24 130.8 361.84 131 361.16 131L342.58 131C341.87 131 341.29 130.81 340.85 130.44C340.41 130.06 339.98 129.54 339.57 128.86L323.49 103.9L316.3 112.63L316.3 128.86C316.3 130.29 315.58 131 314.15 131L299.51 131C298.11 131 297.41 130.29 297.41 128.86L297.41 60.41C297.41 59.73 297.6 59.2 297.97 58.83C298.35 58.42 298.86 58.21 299.51 58.21L313.95 58.21C314.12 58.21 314.34 58.27 314.61 58.37C314.89 58.47 315.14 58.61 315.38 58.78C315.65 58.95 315.87 59.18 316.04 59.49C316.21 59.76 316.3 60.07 316.3 60.41L316.3 87.26L337.38 59.85C337.99 59.07 338.55 58.61 339.06 58.47C339.57 58.3 340.22 58.21 341 58.21L358.66 58.21C359.45 58.21 359.84 58.49 359.84 59.03C359.84 59.54 359.63 60.04 359.22 60.51Z" />
	<path fill="currentColor" d="M413.59 129.81C413.28 130.6 412.7 131 411.84 131L408.74 131C407.85 131 407.25 130.6 406.94 129.81L378.55 60.24C378.48 60.07 378.45 59.84 378.45 59.57C378.45 59.22 378.55 58.96 378.75 58.79C379 58.58 379.33 58.48 379.74 58.48L383.14 58.48C384 58.48 384.59 58.88 384.9 59.67L410.34 122.74L434.65 59.67C434.96 58.88 435.55 58.48 436.41 58.48L439.76 58.48C440.17 58.48 440.5 58.58 440.74 58.79C440.98 58.96 441.1 59.22 441.1 59.57C441.1 59.74 441.05 59.97 440.95 60.24L430.32 87.75L444.41 122.69L469.39 59.67C469.7 58.88 470.28 58.48 471.14 58.48L474.5 58.48C475.39 58.48 475.84 58.83 475.84 59.52C475.84 59.73 475.79 59.97 475.68 60.24L447.55 129.81C447.24 130.6 446.66 131 445.8 131L442.75 131C441.89 131 441.31 130.6 441 129.81L427.22 95.65L413.59 129.81ZM516.97 132.14C510.16 132.14 503.9 130.49 498.19 127.18C492.51 123.88 488.02 119.37 484.72 113.66C481.41 107.95 479.76 101.65 479.76 94.77C479.76 87.85 481.41 81.54 484.72 75.83C488.02 70.12 492.51 65.61 498.19 62.3C503.9 59 510.16 57.35 516.97 57.35C523.82 57.35 530.09 59 535.76 62.3C541.47 65.61 545.98 70.12 549.28 75.83C552.59 81.54 554.24 87.85 554.24 94.77C554.24 101.65 552.59 107.95 549.28 113.66C545.98 119.37 541.47 123.88 535.76 127.18C530.09 130.49 523.82 132.14 516.97 132.14ZM516.97 126.2C522.62 126.2 527.81 124.82 532.56 122.07C537.31 119.28 541.07 115.5 543.86 110.72C546.65 105.9 548.05 100.58 548.05 94.77C548.05 88.92 546.65 83.58 543.86 78.77C541.07 73.95 537.31 70.16 532.56 67.41C527.81 64.62 522.62 63.23 516.97 63.23C511.33 63.23 506.14 64.62 501.39 67.41C496.68 70.16 492.93 73.95 490.14 78.77C487.35 83.58 485.95 88.92 485.95 94.77C485.95 100.58 487.35 105.9 490.14 110.72C492.93 115.5 496.69 119.28 501.44 122.07C506.19 124.82 511.36 126.2 516.97 126.2ZM571.43 131C570.94 131 570.56 130.86 570.29 130.59C570.02 130.31 569.88 129.93 569.88 129.45L569.88 59.98C569.88 58.98 570.4 58.48 571.43 58.48L597.39 58.48C602.2 58.48 606.4 59.43 609.98 61.32C613.59 63.18 616.38 65.85 618.34 69.32C620.3 72.8 621.28 76.84 621.28 81.45C621.28 86.61 620.08 91 617.67 94.61C615.26 98.22 611.89 100.86 607.55 102.51L619.94 129.19C620.08 129.47 620.15 129.73 620.15 129.97C620.15 130.28 620.03 130.53 619.79 130.74C619.55 130.91 619.22 131 618.81 131L615.19 131C614.33 131 613.73 130.62 613.39 129.86L601.67 104.06C599.81 104.33 597.95 104.47 596.1 104.47L575.97 104.47L575.97 129.45C575.97 130.48 575.47 131 574.47 131L571.43 131ZM596.87 98.85C600.55 98.85 603.77 98.14 606.52 96.73C609.27 95.32 611.39 93.3 612.87 90.69C614.38 88.08 615.14 85.01 615.14 81.5C615.14 77.96 614.38 74.88 612.87 72.26C611.39 69.61 609.27 67.6 606.52 66.23C603.77 64.82 600.55 64.11 596.87 64.11L575.97 64.11L575.97 98.85L596.87 98.85ZM693.44 129.14C693.71 129.49 693.85 129.8 693.85 130.07C693.85 130.34 693.73 130.57 693.49 130.74C693.25 130.91 692.92 131 692.51 131L688.59 131C688.18 131 687.83 130.93 687.55 130.79C687.28 130.66 687 130.42 686.73 130.07L657.1 92.96L641.98 109.43L641.98 129.45C641.98 130.48 641.48 131 640.48 131L637.44 131C636.96 131 636.58 130.86 636.3 130.59C636.03 130.31 635.89 129.93 635.89 129.45L635.89 59.98C635.89 58.98 636.41 58.48 637.44 58.48L640.48 58.48C641.48 58.48 641.98 58.98 641.98 59.98L641.98 101.06L680.17 59.31C680.69 58.76 681.31 58.48 682.03 58.48L686.06 58.48C686.47 58.48 686.78 58.57 686.99 58.74C687.23 58.88 687.35 59.09 687.35 59.36C687.35 59.63 687.19 59.96 686.88 60.34L661.18 88.47L693.44 129.14ZM727.35 131.93C722.12 131.93 717.09 130.97 712.28 129.04C707.46 127.08 703.43 124.26 700.2 120.57C699.93 120.26 699.79 119.92 699.79 119.54C699.79 119.16 699.96 118.8 700.3 118.46L702.16 116.5C702.51 116.15 702.85 115.98 703.19 115.98C703.57 115.98 703.93 116.19 704.28 116.6C707.13 119.63 710.62 121.95 714.75 123.57C718.92 125.18 723.15 125.99 727.45 125.99C731.06 125.99 734.32 125.44 737.21 124.34C740.13 123.24 742.45 121.61 744.17 119.44C745.89 117.24 746.75 114.56 746.75 111.39C746.75 108.29 745.82 105.79 743.97 103.9C742.11 102.01 739.77 100.55 736.95 99.52C734.16 98.49 730.24 97.32 725.18 96.01C720.43 94.84 716.46 93.6 713.26 92.29C710.09 90.98 707.43 89.07 705.26 86.56C703.09 84.01 702.01 80.69 702.01 76.6C702.01 72.81 703.09 69.49 705.26 66.64C707.43 63.75 710.39 61.51 714.14 59.93C717.92 58.34 722.17 57.55 726.88 57.55C731.05 57.55 735.11 58.22 739.06 59.57C743.02 60.91 746.51 62.85 749.54 65.4C749.95 65.71 750.16 66.07 750.16 66.48C750.16 66.79 750.01 67.14 749.7 67.52L747.99 69.63C747.62 70.04 747.26 70.25 746.91 70.25C746.6 70.25 746.26 70.11 745.88 69.84C743.33 67.81 740.41 66.24 737.1 65.14C733.83 64.01 730.51 63.44 727.14 63.44C723.7 63.44 720.54 63.97 717.65 65.04C714.76 66.07 712.43 67.6 710.68 69.63C708.96 71.63 708.1 74 708.1 76.75C708.1 79.61 708.96 81.92 710.68 83.67C712.4 85.42 714.53 86.78 717.08 87.75C719.63 88.68 723.22 89.74 727.86 90.95C733.33 92.43 737.74 93.87 741.08 95.28C744.41 96.66 747.22 98.64 749.49 101.22C751.76 103.77 752.9 107.12 752.9 111.28C752.9 115.62 751.75 119.35 749.44 122.48C747.17 125.58 744.09 127.94 740.2 129.55C736.35 131.14 732.06 131.93 727.35 131.93Z" />
</svg>