<svg version="1.2" xmlns="http://www.w3.org/2000/svg" viewBox="0 0 472 619" width="472" height="619">
	<title>phork.works</title>
	<path fill="currentColor" d="M258.74 323.19C231.51 363.62 191.4 396.08 145.17 398.9L40.05 398.85C15.33 398.82 0.59 385.69 1.12 354.95L1 254.73C3.09 207.77 37.4 169.75 76.71 141.16L273 4.42C288.8 -6.58 306.2 10.42 291.2 22.42C256.57 50.13 122.33 172.04 122.33 172.04C110 183.7 125.33 198.37 137 187.37L307.2 38.42C322.2 26.42 339 43.62 325 56.55L168 216.7C155.67 229.7 170.67 244.04 183 231.7C197.01 217.69 343.99 73.86 344.17 73.68C357.17 61.33 374.63 78.62 361.83 92.02C361.83 92.02 214.5 260.15 214 260.7C201.67 274.37 216.67 290.37 228.33 277.37C228.33 277.37 377.64 108.06 377.83 107.85C390.33 93.85 407 111.02 396.33 125.04L258.74 323.19Z" />
	<path fill="currentColor" d="M9 509.65L9 428.29C9 427.43 9.25 426.79 9.72 426.35C10.21 425.9 10.81 425.67 11.48 425.67L48.87 425.67C51.53 425.67 54.04 426.06 56.39 426.83C58.77 427.56 60.95 428.57 62.94 429.87C64.96 431.16 66.76 432.72 68.34 434.54C69.92 436.31 71.25 438.26 72.34 440.36C73.47 442.47 74.33 444.69 74.89 447.03C75.49 449.34 75.8 451.67 75.8 454.01C75.8 457.53 75.15 460.96 73.86 464.33C72.6 467.64 70.81 470.61 68.45 473.24C66.15 475.87 63.36 478 60.09 479.61C56.85 481.19 53.25 481.98 49.28 481.98L31.45 481.98L31.45 509.65C31.45 511.35 30.56 512.19 28.78 512.19L11.48 512.19C9.83 512.19 9 511.35 9 509.65ZM44 444.18L31.45 444.18L31.45 463.6L44 463.6C45.42 463.6 46.68 463.33 47.77 462.8C48.9 462.25 49.83 461.51 50.57 460.62C51.33 459.69 51.92 458.64 52.33 457.47C52.73 456.29 52.93 455.1 52.93 453.89C52.93 452.71 52.73 451.56 52.33 450.43C51.92 449.25 51.33 448.21 50.57 447.28C49.79 446.34 48.84 445.59 47.71 445.03C46.62 444.46 45.38 444.18 44 444.18ZM140.1 509.65L140.1 476.52L110.86 476.52L110.86 509.65C110.86 511.35 109.94 512.19 108.07 512.19L90.97 512.19C89.27 512.19 88.42 511.35 88.42 509.65L88.42 428.29C88.42 427.6 88.63 426.99 89.03 426.47C89.47 425.95 90.11 425.67 90.97 425.67L108.44 425.67C108.93 425.67 109.45 425.84 110.02 426.16C110.58 426.44 110.86 427.11 110.86 428.17L110.86 455.95L140.1 455.95L140.1 428.29C140.1 427.6 140.31 426.99 140.71 426.47C141.16 425.95 141.8 425.67 142.66 425.67L160.13 425.67C160.61 425.67 161.14 425.84 161.7 426.16C162.27 426.44 162.56 427.11 162.56 428.17L162.56 509.65C162.56 511.35 161.63 512.19 159.76 512.19L142.66 512.19C140.96 512.19 140.1 511.35 140.1 509.65ZM177.55 468.94C177.55 464.85 178.07 460.9 179.12 457.1C180.17 453.31 181.67 449.77 183.61 446.49C185.55 443.17 187.88 440.16 190.59 437.45C193.3 434.74 196.29 432.41 199.56 430.47C202.88 428.52 206.44 427.03 210.25 425.98C214.05 424.94 217.98 424.4 222.07 424.4C226.16 424.4 230.1 424.94 233.9 425.98C237.7 427.03 241.24 428.52 244.53 430.47C247.84 432.41 250.85 434.74 253.56 437.45C256.27 440.16 258.6 443.17 260.54 446.49C262.47 449.77 263.97 453.31 265.03 457.1C266.08 460.9 266.6 464.85 266.6 468.94C266.6 473.02 266.08 476.96 265.03 480.76C263.97 484.57 262.47 488.11 260.54 491.38C258.6 494.66 256.27 497.66 253.56 500.37C250.85 503.08 247.84 505.39 244.53 507.34C241.24 509.28 237.7 510.78 233.9 511.82C230.1 512.88 226.16 513.4 222.07 513.4C215.93 513.4 210.14 512.25 204.72 509.95C199.35 507.6 194.63 504.43 190.59 500.42C186.54 496.38 183.35 491.66 180.99 486.29C178.7 480.87 177.55 475.08 177.55 468.94ZM199.93 468.94C199.93 472.14 200.48 475.14 201.57 477.97C202.7 480.76 204.23 483.21 206.18 485.32C208.15 487.37 210.51 489.01 213.22 490.23C215.93 491.44 218.88 492.04 222.07 492.04C225.27 492.04 228.22 491.44 230.93 490.23C233.64 489.01 235.99 487.37 237.96 485.32C239.95 483.21 241.48 480.76 242.58 477.97C243.67 475.14 244.22 472.14 244.22 468.94C244.22 465.74 243.67 462.75 242.58 459.95C241.48 457.12 239.95 454.66 237.96 452.56C235.99 450.46 233.64 448.81 230.93 447.64C228.22 446.43 225.27 445.82 222.07 445.82C218.88 445.82 215.93 446.43 213.22 447.64C210.51 448.81 208.15 450.46 206.18 452.56C204.23 454.66 202.7 457.12 201.57 459.95C200.48 462.75 199.93 465.74 199.93 468.94ZM280.92 509.65L280.92 428.29C280.92 427.63 281.12 427.05 281.53 426.53C281.93 425.96 282.56 425.67 283.41 425.67L322.06 425.67C326.18 425.67 329.93 426.5 333.28 428.17C336.68 429.82 339.59 432.01 342.02 434.72C344.44 437.43 346.32 440.54 347.66 444.06C348.99 447.54 349.66 451.1 349.66 454.73C349.66 457.04 349.31 459.35 348.63 461.65C347.94 463.92 346.97 466.09 345.71 468.14C344.46 470.21 342.97 472.14 341.23 473.91C339.48 475.69 337.57 477.25 335.47 478.58L352.14 509.65C352.48 510.21 352.51 510.78 352.27 511.35C352.02 511.91 351.5 512.19 350.69 512.19L329.7 512.19C328.89 512.19 328.29 512.03 327.88 511.7C327.48 511.35 327.03 510.69 326.54 509.77L312.78 483.44L303.37 483.44L303.37 509.65C303.37 511.35 302.52 512.19 300.82 512.19L283.41 512.19C281.75 512.19 280.92 511.35 280.92 509.65ZM316.29 443.69L303.37 443.69L303.37 464.81L316.29 464.81C317.83 464.81 319.22 464.5 320.48 463.9C321.77 463.29 322.87 462.51 323.76 461.53C324.69 460.56 325.39 459.45 325.87 458.19C326.4 456.94 326.67 455.65 326.67 454.32C326.67 453.06 326.4 451.81 325.87 450.55C325.39 449.25 324.69 448.1 323.76 447.09C322.82 446.08 321.71 445.27 320.42 444.67C319.16 444.02 317.79 443.69 316.29 443.69ZM436.05 428.41L407.9 462.57L439.15 509.46C439.71 510.27 439.91 510.94 439.76 511.47C439.64 511.95 439.16 512.19 438.35 512.19L416.27 512.19C415.43 512.19 414.74 511.97 414.21 511.53C413.69 511.07 413.18 510.46 412.69 509.65L393.58 479.98L385.03 490.36L385.03 509.65C385.03 511.35 384.18 512.19 382.48 512.19L365.08 512.19C363.41 512.19 362.58 511.35 362.58 509.65L362.58 428.29C362.58 427.48 362.81 426.85 363.25 426.41C363.7 425.92 364.3 425.67 365.08 425.67L382.24 425.67C382.44 425.67 382.7 425.74 383.02 425.86C383.36 425.98 383.65 426.15 383.94 426.35C384.26 426.55 384.52 426.83 384.72 427.19C384.93 427.51 385.03 427.88 385.03 428.29L385.03 460.2L410.09 427.62C410.81 426.69 411.48 426.15 412.09 425.98C412.69 425.78 413.46 425.67 414.39 425.67L435.38 425.67C436.32 425.67 436.79 426 436.79 426.65C436.79 427.25 436.54 427.85 436.05 428.41Z" />
	<path fill="currentColor" d="M136.76 615.87C136.46 616.65 135.88 617.04 135.03 617.04L131.97 617.04C131.09 617.04 130.49 616.65 130.19 615.87L102.14 547.13C102.08 546.96 102.04 546.74 102.04 546.47C102.04 546.13 102.14 545.87 102.34 545.7C102.58 545.5 102.91 545.39 103.32 545.39L106.68 545.39C107.53 545.39 108.11 545.79 108.42 546.57L133.55 608.88L157.57 546.57C157.88 545.79 158.46 545.39 159.31 545.39L162.62 545.39C163.03 545.39 163.35 545.5 163.59 545.7C163.82 545.87 163.94 546.13 163.94 546.47C163.94 546.64 163.89 546.86 163.79 547.13L153.29 574.31L167.21 608.83L191.89 546.57C192.19 545.79 192.77 545.39 193.62 545.39L196.94 545.39C197.82 545.39 198.26 545.74 198.26 546.42C198.26 546.62 198.21 546.86 198.11 547.13L170.31 615.87C170.01 616.65 169.43 617.04 168.58 617.04L165.57 617.04C164.72 617.04 164.15 616.65 163.84 615.87L150.23 582.12L136.76 615.87ZM238.9 618.17C232.17 618.17 225.98 616.54 220.35 613.27C214.73 610.01 210.3 605.56 207.04 599.91C203.77 594.27 202.14 588.05 202.14 581.25C202.14 574.41 203.77 568.17 207.04 562.54C210.3 556.89 214.73 552.43 220.35 549.17C225.98 545.91 232.17 544.28 238.9 544.28C245.67 544.28 251.86 545.91 257.47 549.17C263.11 552.43 267.56 556.89 270.82 562.54C274.09 568.17 275.72 574.41 275.72 581.25C275.72 588.05 274.09 594.27 270.82 599.91C267.56 605.56 263.11 610.01 257.47 613.27C251.86 616.54 245.67 618.17 238.9 618.17ZM238.9 612.3C244.48 612.3 249.61 610.94 254.3 608.22C258.99 605.47 262.71 601.73 265.47 597.01C268.23 592.24 269.61 586.99 269.61 581.25C269.61 575.46 268.23 570.2 265.47 565.44C262.71 560.68 258.99 556.94 254.3 554.22C249.61 551.46 244.48 550.09 238.9 550.09C233.33 550.09 228.2 551.46 223.51 554.22C218.85 556.94 215.15 560.68 212.39 565.44C209.63 570.2 208.25 575.46 208.25 581.25C208.25 586.99 209.63 592.24 212.39 597.01C215.15 601.73 218.87 605.47 223.56 608.22C228.25 610.94 233.36 612.3 238.9 612.3ZM292.71 617.04C292.23 617.04 291.85 616.91 291.58 616.64C291.31 616.36 291.18 615.99 291.18 615.51L291.18 546.88C291.18 545.89 291.69 545.39 292.71 545.39L318.36 545.39C323.11 545.39 327.26 546.33 330.79 548.2C334.36 550.04 337.12 552.67 339.05 556.1C340.99 559.54 341.96 563.54 341.96 568.09C341.96 573.19 340.77 577.52 338.39 581.09C336.01 584.66 332.68 587.26 328.39 588.89L340.64 615.25C340.77 615.53 340.84 615.79 340.84 616.03C340.84 616.33 340.72 616.58 340.49 616.79C340.25 616.96 339.93 617.04 339.52 617.04L335.94 617.04C335.09 617.04 334.5 616.67 334.16 615.92L322.58 590.43C320.75 590.7 318.91 590.83 317.08 590.83L297.19 590.83L297.19 615.51C297.19 616.53 296.7 617.04 295.71 617.04L292.71 617.04ZM317.84 585.28C321.48 585.28 324.66 584.58 327.38 583.18C330.1 581.79 332.19 579.8 333.65 577.22C335.15 574.63 335.89 571.61 335.89 568.14C335.89 564.64 335.15 561.6 333.65 559.01C332.19 556.39 330.1 554.41 327.38 553.05C324.66 551.65 321.48 550.96 317.84 550.96L297.19 550.96L297.19 585.28L317.84 585.28ZM413.25 615.21C413.52 615.55 413.66 615.85 413.66 616.12C413.66 616.39 413.54 616.62 413.3 616.79C413.07 616.96 412.74 617.04 412.33 617.04L408.46 617.04C408.05 617.04 407.71 616.97 407.43 616.84C407.16 616.7 406.89 616.47 406.62 616.12L377.35 579.46L362.41 595.73L362.41 615.51C362.41 616.53 361.92 617.04 360.93 617.04L357.93 617.04C357.45 617.04 357.08 616.91 356.8 616.64C356.53 616.36 356.39 615.99 356.39 615.51L356.39 546.88C356.39 545.89 356.9 545.39 357.93 545.39L360.93 545.39C361.92 545.39 362.41 545.89 362.41 546.88L362.41 587.46L400.14 546.21C400.66 545.67 401.27 545.39 401.98 545.39L405.96 545.39C406.37 545.39 406.68 545.48 406.88 545.65C407.12 545.79 407.24 545.99 407.24 546.26C407.24 546.53 407.08 546.86 406.77 547.23L381.38 575.02L413.25 615.21ZM446.76 617.96C441.59 617.96 436.62 617.01 431.87 615.11C427.11 613.17 423.13 610.38 419.93 606.74C419.66 606.44 419.53 606.1 419.53 605.72C419.53 605.35 419.7 604.99 420.03 604.65L421.87 602.72C422.21 602.37 422.55 602.2 422.89 602.2C423.26 602.2 423.62 602.41 423.96 602.82C426.78 605.81 430.23 608.1 434.31 609.7C438.42 611.3 442.61 612.09 446.86 612.09C450.43 612.09 453.64 611.55 456.5 610.46C459.38 609.38 461.68 607.76 463.37 605.62C465.07 603.45 465.92 600.8 465.92 597.67C465.92 594.61 465.01 592.14 463.18 590.27C461.34 588.4 459.03 586.96 456.24 585.94C453.49 584.92 449.61 583.76 444.61 582.47C439.92 581.31 436 580.09 432.84 578.8C429.71 577.51 427.07 575.62 424.93 573.14C422.79 570.62 421.72 567.34 421.72 563.3C421.72 559.55 422.79 556.27 424.93 553.46C427.07 550.6 430 548.39 433.7 546.83C437.44 545.26 441.64 544.47 446.29 544.47C450.41 544.47 454.42 545.14 458.33 546.47C462.24 547.79 465.69 549.71 468.68 552.23C469.09 552.53 469.29 552.89 469.29 553.3C469.29 553.61 469.14 553.95 468.84 554.32L467.15 556.41C466.78 556.82 466.42 557.02 466.08 557.02C465.78 557.02 465.44 556.89 465.06 556.62C462.55 554.61 459.66 553.06 456.39 551.97C453.16 550.85 449.88 550.29 446.55 550.29C443.15 550.29 440.02 550.82 437.17 551.87C434.31 552.9 432.02 554.41 430.29 556.41C428.59 558.39 427.74 560.73 427.74 563.44C427.74 566.27 428.59 568.55 430.29 570.28C431.99 572.01 434.09 573.36 436.61 574.31C439.13 575.23 442.68 576.28 447.26 577.47C452.67 578.94 457.02 580.36 460.32 581.75C463.62 583.12 466.38 585.07 468.63 587.62C470.88 590.14 472 593.45 472 597.56C472 601.85 470.86 605.54 468.58 608.63C466.34 611.69 463.29 614.02 459.45 615.61C455.65 617.18 451.41 617.96 446.76 617.96Z" />
</svg>